<?xml version="1.0" encoding="UTF-8"?>
<svg width="100" height="100" viewBox="0 0 100 100" version="1.1" xmlns="http://www.w3.org/2000/svg" xmlns:xlink="http://www.w3.org/1999/xlink">
 <path d="M28.5,0 l13.39,0" fill="none" stroke="rgb(0,0,0)" stroke-linecap="round" stroke-width="6" transform="matrix(1,0,0,-1,50,50)"/>
 <path d="M28.5,0 l13.39,0" fill="none" stroke="rgb(0,0,0)" stroke-linecap="round" stroke-width="6" transform="matrix(6.123233995736766e-17,-1.0,-1.0,-6.123233995736766e-17,50,50)"/>
 <path d="M28.5,0 l13.39,0" fill="none" stroke="rgb(0,0,0)" stroke-linecap="round" stroke-width="6" transform="matrix(-1.0,-1.2246467991473532e-16,-1.2246467991473532e-16,1.0,50.0,50.0)"/>
 <path d="M28.5,0 l13.39,0" fill="none" stroke="rgb(0,0,0)" stroke-linecap="round" stroke-width="6" transform="matrix(-1.8369701987210297e-16,1.0,1.0,1.8369701987210297e-16,50.0,50.0)"/>
 <path d="M20.15,-20.15 c11.13,11.13,11.13,29.18,0,40.31 c-11.13,11.13,-29.18,11.13,-40.31,0.0 c-11.13,-11.13,-11.13,-29.18,-0.0,-40.31 c11.13,-11.13,29.18,-11.13,40.31,-0.0 Z M20.15,-20.15" fill="none" stroke="rgb(0,0,0)" stroke-linecap="round" stroke-width="6" transform="matrix(1,0,0,-1,50,50)"/>
 <path d="M20.15,-20.15 c11.13,11.13,11.13,29.18,0,40.31 c-11.13,11.13,-29.18,11.13,-40.31,0.0 c-11.13,-11.13,-11.13,-29.18,-0.0,-40.31 c11.13,-11.13,29.18,-11.13,40.31,-0.0 Z M20.15,-20.15" fill="rgb(0,0,0)" stroke-linecap="round" transform="matrix(0.66,0.0,0.0,-0.66,50,50)"/>
</svg>