<?xml version="1.0" encoding="UTF-8"?>
<svg width="100" height="100" viewBox="0 0 100 100" version="1.1" xmlns="http://www.w3.org/2000/svg" xmlns:xlink="http://www.w3.org/1999/xlink">
 <path d="M10.56,47.52 l22.44,0" fill="none" stroke="rgb(0,0,0)" stroke-linecap="round" stroke-width="6" transform="matrix(1,0,0,-1,17.5,82.0)"/>
 <path d="M32.01,0 l0,47.52" fill="none" stroke="rgb(0,0,0)" stroke-linecap="round" stroke-width="6" transform="matrix(1,0,0,-1,17.5,82.0)"/>
 <path d="M33.99,0 l0,47.52" fill="none" stroke="rgb(0,0,0)" stroke-linecap="round" stroke-width="6" transform="matrix(1,0,0,-1,17.5,82.0)"/>
 <path d="M10.56,0 l44.88,0" fill="none" stroke="rgb(0,0,0)" stroke-linecap="round" stroke-width="6" transform="matrix(1,0,0,-1,17.5,82.0)"/>
 <path d="M34.82,63.88 c1.17,1.17,1.17,3.07,0,4.24 c-1.17,1.17,-3.07,1.17,-4.24,0 c-1.17,-1.17,-1.17,-3.07,0,-4.24 c1.17,-1.17,3.07,-1.17,4.24,0 Z M34.82,63.88" fill="none" stroke="rgb(0,0,0)" stroke-linecap="round" stroke-width="6" transform="matrix(1,0,0,-1,17.5,82.0)"/>
</svg>