<?xml version="1.0" encoding="UTF-8"?>
<svg width="100" height="100" viewBox="0 0 100 100" version="1.1" xmlns="http://www.w3.org/2000/svg" xmlns:xlink="http://www.w3.org/1999/xlink">
 <path d="M0,0 l72,0" fill="none" stroke="rgb(255,255,255)" stroke-linecap="round" stroke-width="6" transform="matrix(1,0,0,-1,14,80)"/>
 <path d="M3.54,-3.54 c1.95,1.95,1.95,5.12,0,7.07 c-1.95,1.95,-5.12,1.95,-7.07,0.0 c-1.95,-1.95,-1.95,-5.12,-0.0,-7.07 c1.95,-1.95,5.12,-1.95,7.07,-0.0 Z M3.54,-3.54" fill="none" stroke="rgb(255,255,255)" stroke-linecap="round" stroke-width="6" transform="matrix(1,0,0,-1,25.876362547990254,80.0)"/>
 <path d="M0,0 l72,0" fill="none" stroke="rgb(255,255,255)" stroke-linecap="round" stroke-width="6" transform="matrix(1,0,0,-1,14.0,60.0)"/>
 <path d="M3.54,-3.54 c1.95,1.95,1.95,5.12,0,7.07 c-1.95,1.95,-5.12,1.95,-7.07,0.0 c-1.95,-1.95,-1.95,-5.12,-0.0,-7.07 c1.95,-1.95,5.12,-1.95,7.07,-0.0 Z M3.54,-3.54" fill="none" stroke="rgb(255,255,255)" stroke-linecap="round" stroke-width="6" transform="matrix(1,0,0,-1,63.66321854366485,60.0)"/>
 <path d="M0,0 l72,0" fill="none" stroke="rgb(255,255,255)" stroke-linecap="round" stroke-width="6" transform="matrix(1,0,0,-1,14.0,40.0)"/>
 <path d="M3.54,-3.54 c1.95,1.95,1.95,5.12,0,7.07 c-1.95,1.95,-5.12,1.95,-7.07,0.0 c-1.95,-1.95,-1.95,-5.12,-0.0,-7.07 c1.95,-1.95,5.12,-1.95,7.07,-0.0 Z M3.54,-3.54" fill="none" stroke="rgb(255,255,255)" stroke-linecap="round" stroke-width="6" transform="matrix(1,0,0,-1,59.71999570913989,40.0)"/>
 <path d="M0,0 l72,0" fill="none" stroke="rgb(255,255,255)" stroke-linecap="round" stroke-width="6" transform="matrix(1,0,0,-1,14.0,20.0)"/>
 <path d="M3.54,-3.54 c1.95,1.95,1.95,5.12,0,7.07 c-1.95,1.95,-5.12,1.95,-7.07,0.0 c-1.95,-1.95,-1.95,-5.12,-0.0,-7.07 c1.95,-1.95,5.12,-1.95,7.07,-0.0 Z M3.54,-3.54" fill="none" stroke="rgb(255,255,255)" stroke-linecap="round" stroke-width="6" transform="matrix(1,0,0,-1,48.49523398813649,20.0)"/>
</svg>