<?xml version="1.0" encoding="UTF-8"?>
<svg width="100" height="100" viewBox="0 0 100 100" version="1.1" xmlns="http://www.w3.org/2000/svg" xmlns:xlink="http://www.w3.org/1999/xlink">
 <path d="M0,66 l66,0" fill="none" stroke="rgb(0,0,0)" stroke-linecap="round" stroke-width="6" transform="matrix(1,0,0,-1,17,83)"/>
 <path d="M32.01,0 l0,66" fill="none" stroke="rgb(0,0,0)" stroke-linecap="round" stroke-width="6" transform="matrix(1,0,0,-1,17,83)"/>
 <path d="M33.99,0 l0,66" fill="none" stroke="rgb(0,0,0)" stroke-linecap="round" stroke-width="6" transform="matrix(1,0,0,-1,17,83)"/>
 <path d="M18.48,0 l29.04,0" fill="none" stroke="rgb(0,0,0)" stroke-linecap="round" stroke-width="6" transform="matrix(1,0,0,-1,17,83)"/>
 <path d="M0,66 l0,-19.8" fill="none" stroke="rgb(0,0,0)" stroke-linecap="round" stroke-width="6" transform="matrix(1,0,0,-1,17,83)"/>
 <path d="M66,66 l0,-19.8" fill="none" stroke="rgb(0,0,0)" stroke-linecap="round" stroke-width="6" transform="matrix(1,0,0,-1,17,83)"/>
</svg>