<svg xmlns="http://www.w3.org/2000/svg" viewBox="0 0 1000 1000"><path d="M851 239C873 239 890 222 890 200C890 178 873 161 851 161H149C127 161 110 178 110 200C110 222 127 239 149 239ZM711 439C733 439 750 422 750 400C750 378 733 361 711 361H289C267 361 250 378 250 400C250 422 267 439 289 439ZM851 639C873 639 890 622 890 600C890 578 873 561 851 561H149C127 561 110 578 110 600C110 622 127 639 149 639ZM711 839C733 839 750 822 750 800C750 778 733 761 711 761H289C267 761 250 778 250 800C250 822 267 839 289 839Z"/></svg>
