<svg xmlns="http://www.w3.org/2000/svg" viewBox="0 0 1000 1000"><path d="M851 239C873 239 890 222 890 200C890 178 873 161 851 161H149C127 161 110 178 110 200C110 222 127 239 149 239ZM851 439C873 439 890 422 890 400C890 378 873 361 851 361H349C327 361 310 378 310 400C310 422 327 439 349 439ZM851 639C873 639 890 622 890 600C890 578 873 561 851 561H149C127 561 110 578 110 600C110 622 127 639 149 639ZM851 839C873 839 890 822 890 800C890 778 873 761 851 761H349C327 761 310 778 310 800C310 822 327 839 349 839Z"/></svg>
