<svg xmlns="http://www.w3.org/2000/svg" viewBox="0 0 1000 1000"><path d="M500 949C517 949 530 935 530 919V814C601 807 669 776 723 723C777 669 807 601 814 530H919C935 530 949 517 949 500C949 483 936 470 919 470H814C807 399 777 331 723 277C669 223 600 193 530 186V81C530 64 517 51 500 51C483 51 470 64 470 81V186C400 193 331 223 277 277C223 331 193 399 186 470H81C64 470 51 483 51 500C51 517 64 530 81 530H186C193 601 223 669 277 723C331 776 399 807 470 814V919C470 936 483 949 500 949ZM660 500C660 412 588 340 500 340C412 340 340 412 340 500C340 588 412 660 500 660C588 660 660 588 660 500ZM500 245C565 245 631 270 680 320C780 419 780 581 680 680C631 730 565 755 500 755C435 755 370 730 320 680C220 581 220 419 320 320C369 270 435 245 500 245Z"/></svg>
