<svg xmlns="http://www.w3.org/2000/svg" viewBox="0 0 1000 1000"><path d="M816 619 826 338C828 289 804 241 744 241C727 241 713 246 702 256V235C702 189 680 141 620 141C603 141 589 146 578 156C578 108 553 60 486 60C420 60 395 107 394 155C383 146 369 141 352 141C292 141 270 189 270 238V407C259 397 244 391 225 391C163 391 128 438 145 516L184 699C212 830 326 936 495 936C675 936 809 817 816 619ZM270 585C270 604 282 615 300 615C317 615 328 604 328 585V238C328 216 340 199 362 199C384 199 395 216 395 238V456C395 475 407 486 424 486C441 486 453 475 453 456V157C453 135 464 118 486 118C508 118 519 135 519 157V456C519 475 531 486 548 486C565 486 577 475 577 456V238C577 216 588 199 610 199C632 199 643 216 643 238V496C643 515 655 526 672 526C689 526 701 515 701 496V338C701 316 712 299 734 299C756 299 769 316 768 338L758 619C752 781 644 877 495 877C357 877 264 795 239 681L200 503C192 467 211 449 235 449C258 449 270 468 270 491Z"/></svg>
