<svg xmlns="http://www.w3.org/2000/svg" viewBox="0 0 1000 1000"><path d="M826 619V318C826 269 804 221 744 221C727 221 713 226 702 236C702 189 680 141 620 141C603 141 589 146 578 156C578 108 553 60 486 60C420 60 395 107 394 155C383 146 369 141 352 141C292 141 270 189 270 238V407C259 397 244 391 225 391C163 391 128 438 145 516L184 699C212 830 326 936 495 936C675 936 826 817 826 619ZM270 585C270 604 282 615 300 615C317 615 328 604 328 585V238C328 216 340 199 362 199C384 199 395 216 395 238V456C395 475 407 486 424 486C441 486 453 475 453 456V157C453 135 464 118 486 118C508 118 519 135 519 157V456C519 475 531 486 548 486C565 486 577 475 577 456V238C577 216 588 199 610 199C632 199 643 216 643 238V456C643 475 655 486 672 486C689 486 701 475 701 456V318C701 296 712 279 734 279C756 279 768 296 768 318V619C768 781 644 877 495 877C357 877 264 795 239 681L200 503C192 467 211 449 235 449C258 449 270 468 270 491Z"/></svg>
