<svg xmlns="http://www.w3.org/2000/svg" viewBox="0 0 1000 1000"><path d="M211 173M211 173 75 807C71 828 81 847 105 847C122 847 131 835 135 817L265 186H223L352 811C356 831 368 847 392 847C417 847 432 826 426 798L292 173C287 150 270 139 252 139C233 139 216 150 211 173ZM156 660H330V600H155ZM773 813 909 179C913 158 903 139 879 139C862 139 853 151 849 169L719 800H761L632 175C628 155 616 139 592 139C567 139 552 160 558 188L692 813C697 836 714 847 732 847C751 847 768 836 773 813ZM612 896C616 917 606 936 582 936C565 936 556 924 552 906L375 100C371 79 381 60 405 60C422 60 431 72 435 90Z"/></svg>
