<svg xmlns="http://www.w3.org/2000/svg" viewBox="0 0 1000 1000"><path d="M859 645H667V585H860ZM235 816C207 816 185 801 177 764L42 231C35 199 52 180 76 180C93 180 106 190 112 214L243 764H227L359 214C365 190 378 180 393 180C418 180 435 199 427 231L293 764C284 801 262 816 235 816ZM404 774C408 759 421 751 436 754C451 759 458 771 455 786L433 871C430 888 416 896 401 893C387 889 379 875 383 860ZM459 556C463 541 476 533 491 537C505 541 513 553 510 569L488 653C485 670 471 679 456 675C442 671 434 658 438 642ZM514 339C518 323 531 316 546 319C561 323 568 335 565 351L543 435C540 452 526 461 511 457C497 453 489 440 493 424ZM569 121C573 105 586 98 601 101C616 105 623 118 620 133L598 218C595 234 581 243 566 240C552 235 544 222 548 207ZM765 180C793 180 815 195 823 232L958 765C965 797 948 816 924 816C907 816 894 806 888 782L757 232H773L641 782C635 806 622 816 607 816C582 816 565 797 573 765L707 232C716 195 738 180 765 180Z"/></svg>
