<svg xmlns="http://www.w3.org/2000/svg" viewBox="0 0 1000 1000"><path d="M852 927C852 951 836 962 820 962C804 962 787 951 787 927V845H709C686 845 675 829 675 813C675 797 686 782 709 782H787V700C787 676 804 665 819 665C836 665 852 676 852 700V782H930C953 782 964 797 964 813C964 829 953 845 930 845H852ZM567 789C586 785 608 794 608 818C608 833 600 848 580 852C554 857 526 860 497 860C281 860 125 704 125 489C125 273 281 117 497 117C712 117 869 273 869 489C869 518 867 545 862 570C857 591 845 601 828 601C802 601 793 582 797 561C802 533 804 510 804 489C804 310 674 180 497 180C320 180 190 310 190 489C190 667 320 797 497 797C521 797 545 794 567 789Z"/></svg>
