<svg xmlns="http://www.w3.org/2000/svg" viewBox="0 0 1000 1000"><path d="M852 937C852 961 836 972 820 972C804 972 787 961 787 937V855H709C686 855 675 839 675 823C675 807 686 792 709 792H787V710C787 686 804 675 819 675C836 675 852 686 852 710V792H930C953 792 964 807 964 823C964 839 953 855 930 855H852ZM567 799C567 799 567 799 567 799C586 795 608 804 608 828C608 843 600 858 580 862C554 867 526 870 497 870C281 870 125 714 125 499C125 283 281 127 497 127C712 127 869 283 869 499C869 528 867 555 862 580C857 601 845 611 828 611C802 611 793 592 797 571C802 543 804 520 804 499C804 320 674 190 497 190C320 190 190 320 190 499C190 677 320 807 497 807C521 807 545 804 567 799"/></svg>
