<svg xmlns="http://www.w3.org/2000/svg" viewBox="0 0 1000 1000"><path d="M547 777 635 689 696 837C705 860 732 872 756 862C778 853 789 826 780 802L720 653H842C851 653 860 648 863 640C867 630 865 621 858 613L547 299C541 293 531 291 521 295C513 299 508 306 508 316V761C508 770 514 778 523 782C531 786 541 784 547 777ZM176 606C211 324 381 175 682 175C704 175 714 160 714 146C714 132 704 117 682 117C318 117 115 332 115 716C115 735 131 744 145 744C160 744 175 735 175 716C175 549 287 448 426 448C448 448 458 434 458 419C458 404 448 390 426 390C299 390 190 470 150 601Z"/></svg>
