<svg xmlns="http://www.w3.org/2000/svg" viewBox="0 0 1000 1000"><path d="M876 854C889 868 910 869 922 857C934 845 934 827 922 815L830 713C819 700 800 698 787 709C775 720 775 741 787 753ZM925 695C925 608 874 535 787 535C700 535 649 608 649 695C649 784 700 856 787 856C874 856 925 784 925 695ZM868 695C868 761 840 801 787 801C734 801 707 751 707 695C707 640 734 590 787 590C840 590 868 640 868 695ZM779 326 640 187 594 232 733 371ZM814 107C777 70 721 68 679 110L161 628C148 641 143 652 141 663L114 816C110 840 122 861 153 856L308 830C319 828 330 823 343 810L861 293C908 247 904 197 864 157ZM820 201C834 215 835 228 815 248L300 764L176 790L204 672L722 155C739 138 755 136 770 151Z"/></svg>
