<svg xmlns="http://www.w3.org/2000/svg" viewBox="0 0 1000 1000"><path d="M141 179C141 157 157 142 177 142H816C835 142 852 157 852 179V573C852 597 836 608 820 608C804 608 787 597 787 573V205H206V792H572C595 792 606 807 606 823C606 839 595 855 572 855H178L178 855C178 855 177 855 177 855C157 855 141 840 141 818ZM852 937C852 961 836 972 820 972C804 972 787 961 787 937V855H709C686 855 675 839 675 823C675 807 686 792 709 792H787V710C787 686 804 675 819 675C836 675 852 686 852 710V792H930C953 792 964 807 964 823C964 839 953 855 930 855H852Z"/></svg>
