<svg xmlns="http://www.w3.org/2000/svg" viewBox="0 0 1000 1000"><path d="M141 169C141 147 157 132 177 132H816C835 132 852 147 852 169V563C852 587 836 598 820 598C804 598 787 587 787 563V195H206V782H572C595 782 606 797 606 813C606 829 595 845 572 845H178C178 845 177 845 177 845C157 845 141 830 141 808ZM852 927C852 951 836 962 820 962C804 962 787 951 787 927V845H709C686 845 675 829 675 813C675 797 686 782 709 782H787V700C787 676 804 665 819 665C836 665 852 676 852 700V782H930C953 782 964 797 964 813C964 829 953 845 930 845H852Z"/></svg>
