<svg xmlns="http://www.w3.org/2000/svg" viewBox="0 0 1000 1000"><path d="M733 114C745 102 745 85 733 73L725 64C713 52 695 52 683 64L46 701C34 713 34 731 46 743L55 751C67 763 84 763 96 751L114 733L324 943C334 953 349 952 359 942C368 932 368 918 359 908L149 698L185 662L292 770C302 780 318 780 327 769C337 759 337 745 327 735L220 627L255 592L362 700C372 710 388 710 398 700C407 689 408 674 398 664L291 556L326 521L434 628C444 638 458 638 468 628C478 618 479 603 469 593L362 485L397 450L606 659C615 669 632 669 641 659C651 650 651 633 641 624L432 415L468 379L575 487C585 497 600 496 610 486C620 476 620 462 610 452L503 344L539 308L646 416C656 426 671 426 680 416C690 406 690 392 680 382L573 274L609 238L716 346C726 356 740 356 750 346C760 337 760 322 750 312L643 204L679 168L888 377C898 387 913 387 924 377C934 368 933 351 923 341L715 132Z"/></svg>
