<svg xmlns="http://www.w3.org/2000/svg" viewBox="0 0 1000 1000"><path d="M300 218C300 196 316 181 336 181C355 181 373 196 373 218V779C373 801 355 816 336 816C316 816 300 801 300 779ZM627 218C627 196 645 181 664 181C683 181 700 196 700 218V779C700 801 683 816 664 816C645 816 627 801 627 779ZM337 522 336 462H664V522ZM114 126C114 110 125 99 140 99C156 99 167 110 167 126V210C167 226 156 237 140 237C125 237 114 226 114 210ZM114 342C114 327 125 316 140 316C156 316 167 327 167 342V427C167 442 156 453 140 453C125 453 114 442 114 427ZM114 559C114 544 125 533 140 533C156 533 167 544 167 559V644C167 659 156 670 140 670C125 670 114 659 114 644ZM114 776C114 760 125 749 140 749C156 749 167 760 167 776V860C167 876 156 887 140 887C125 887 114 876 114 860ZM833 126C833 110 844 99 860 99C875 99 886 110 886 126V210C886 226 875 237 860 237C844 237 833 226 833 210ZM833 342C833 327 844 316 860 316C875 316 886 327 886 342V427C886 442 875 453 860 453C844 453 833 442 833 427ZM833 559C833 544 844 533 860 533C875 533 886 544 886 559V644C886 659 875 670 860 670C844 670 833 659 833 644ZM833 776C833 760 844 749 860 749C875 749 886 760 886 776V860C886 876 875 887 860 887C844 887 833 876 833 860Z"/></svg>
