<svg xmlns="http://www.w3.org/2000/svg" width="1000" height="1000" viewBox="0 0 1000 1000"><path transform="matrix(1 0 0 -1 0 800)" d="M851 561C873 561 890 578 890 600C890 622 873 639 851 639H149C127 639 110 622 110 600C110 578 127 561 149 561ZM851 361C873 361 890 378 890 400C890 422 873 439 851 439H349C327 439 310 422 310 400C310 378 327 361 349 361ZM851 161C873 161 890 178 890 200C890 222 873 239 851 239H149C127 239 110 222 110 200C110 178 127 161 149 161ZM851 -39C873 -39 890 -22 890 0C890 22 873 39 851 39H349C327 39 310 22 310 0C310 -22 327 -39 349 -39Z"/></svg>
