<svg xmlns="http://www.w3.org/2000/svg" viewBox="0 0 1000 1000"><path d="M851 239C873 239 890 222 890 200C890 178 873 161 851 161H149C127 161 110 178 110 200C110 222 127 239 149 239ZM651 439C673 439 690 422 690 400C690 378 673 361 651 361H149C127 361 110 378 110 400C110 422 127 439 149 439ZM851 639C873 639 890 622 890 600C890 578 873 561 851 561H149C127 561 110 578 110 600C110 622 127 639 149 639ZM651 839C673 839 690 822 690 800C690 778 673 761 651 761H149C127 761 110 778 110 800C110 822 127 839 149 839Z"/></svg>
