<svg xmlns="http://www.w3.org/2000/svg" width="1000" height="1000" viewBox="0 0 1000 1000"><path transform="matrix(1 0 0 -1 0 800)" d="M851 561C873 561 890 578 890 600C890 622 873 639 851 639H149C127 639 110 622 110 600C110 578 127 561 149 561ZM651 361C673 361 690 378 690 400C690 422 673 439 651 439H149C127 439 110 422 110 400C110 378 127 361 149 361ZM851 161C873 161 890 178 890 200C890 222 873 239 851 239H149C127 239 110 222 110 200C110 178 127 161 149 161ZM651 -39C673 -39 690 -22 690 0C690 22 673 39 651 39H149C127 39 110 22 110 0C110 -22 127 -39 149 -39Z"/></svg>
