<svg xmlns="http://www.w3.org/2000/svg" width="1000" height="1000" viewBox="0 0 1000 1000"><path transform="matrix(1 0 0 -1 0 800)" d="M851 561C873 561 890 578 890 600C890 622 873 639 851 639H149C127 639 110 622 110 600C110 578 127 561 149 561ZM711 361C733 361 750 378 750 400C750 422 733 439 711 439H289C267 439 250 422 250 400C250 378 267 361 289 361ZM851 161C873 161 890 178 890 200C890 222 873 239 851 239H149C127 239 110 222 110 200C110 178 127 161 149 161ZM711 -39C733 -39 750 -22 750 0C750 22 733 39 711 39H289C267 39 250 22 250 0C250 -22 267 -39 289 -39Z"/></svg>
