<svg xmlns="http://www.w3.org/2000/svg" width="1000" height="1000" viewBox="0 0 1000 1000"><path transform="matrix(1 0 0 -1 0 800)" d="M500 -149C517 -149 530 -135 530 -119V-14C601 -7 669 24 723 77C777 131 807 199 814 270H919C935 270 949 283 949 300C949 317 936 330 919 330H814C807 401 777 469 723 523C669 577 600 607 530 614V719C530 736 517 749 500 749C483 749 470 736 470 719V614C400 607 331 577 277 523C223 469 193 401 186 330H81C64 330 51 317 51 300C51 283 64 270 81 270H186C193 199 223 131 277 77C331 24 399 -7 470 -14V-119C470 -136 483 -149 500 -149ZM660 300C660 388 588 460 500 460C412 460 340 388 340 300C340 212 412 140 500 140C588 140 660 212 660 300ZM500 555C565 555 631 530 680 480C780 381 780 219 680 120C631 70 565 45 500 45C435 45 370 70 320 120C220 219 220 381 320 480C369 530 435 555 500 555Z"/></svg>
