<svg xmlns="http://www.w3.org/2000/svg" width="1000" height="1000" viewBox="0 0 1000 1000"><path transform="matrix(1 0 0 -1 0 800)" d="M529 -8C599 -1 666 30 719 81C771 134 801 201 808 271V329C801 399 771 466 719 519C666 571 598 601 529 608H471C402 601 334 571 281 519C229 466 199 399 192 329V271C199 201 229 134 281 81C334 30 401 -1 471 -8ZM500 503C552 503 604 483 643 443C722 365 722 235 643 157C604 117 552 98 500 98C449 98 397 117 357 157C278 235 278 365 357 443C396 483 449 503 500 503ZM578 661C577 678 567 689 550 691C514 695 486 695 450 691C433 689 423 678 422 661L417 591H583ZM300 610C287 622 272 622 259 612C231 589 211 569 188 541C178 528 178 513 190 500L236 447L353 564ZM139 378C122 377 111 367 109 350C105 314 105 286 109 250C111 233 122 223 139 222L209 217V383ZM190 100C178 87 178 72 188 59C211 31 231 11 259 -12C272 -22 287 -22 300 -10L353 36L236 153ZM422 -61C423 -78 433 -89 450 -91C486 -95 514 -95 550 -91C567 -89 577 -78 578 -61L583 9H417ZM700 -10C713 -22 728 -22 741 -12C769 11 789 31 812 59C822 72 822 87 810 100L764 153L647 36ZM861 222C878 223 889 233 891 250C895 286 895 314 891 350C889 367 878 377 861 378L791 383V217ZM810 500C822 513 822 528 812 541C789 569 769 589 741 612C728 622 713 622 700 610L647 564L764 447Z"/></svg>
