<svg xmlns="http://www.w3.org/2000/svg" width="1000" height="1000" viewBox="0 0 1000 1000"><path d="M529 808C599 801 666 770 719 719C771 666 801 599 808 529V471C801 401 771 334 719 281C666 229 598 199 529 192H471C402 199 334 229 281 281C229 334 199 401 192 471V529C199 599 229 666 281 719C334 770 401 801 471 808ZM500 297C552 297 604 317 643 357C722 435 722 565 643 643C604 683 552 702 500 702C449 702 397 683 357 643C278 565 278 435 357 357C396 317 449 297 500 297ZM578 139C577 122 567 111 550 109C514 105 486 105 450 109C433 111 423 122 422 139L417 209H583ZM300 190C287 178 272 178 259 188C231 211 211 231 188 259C178 272 178 287 190 300L236 353L353 236ZM139 422C122 423 111 433 109 450C105 486 105 514 109 550C111 567 122 577 139 578L209 583V417ZM190 700C178 713 178 728 188 741C211 769 231 789 259 812C272 822 287 822 300 810L353 764L236 647ZM422 861C423 878 433 889 450 891C486 895 514 895 550 891C567 889 577 878 578 861L583 791H417ZM700 810C713 822 728 822 741 812C769 789 789 769 812 741C822 728 822 713 810 700L764 647L647 764ZM861 578C878 577 889 567 891 550C895 514 895 486 891 450C889 433 878 423 861 422L791 417V583ZM810 300C822 287 822 272 812 259C789 231 769 211 741 188C728 178 713 178 700 190L647 236L764 353Z"/></svg>
