<svg xmlns="http://www.w3.org/2000/svg" viewBox="0 0 1000 1000"><path d="M190 700C178 713 178 728 188 741C211 769 231 789 259 812C272 822 287 822 300 810L348 769C370 781 393 791 417 798L422 861C423 878 433 889 450 891C486 895 514 895 550 891C567 889 577 878 578 861L583 798C607 791 630 781 652 769L700 810C713 822 728 822 741 812C769 789 789 769 812 741C822 728 822 713 810 700L769 653C782 630 791 607 798 583L861 578C878 577 889 567 891 550C895 514 895 486 891 450C889 433 878 423 861 422L798 417C791 393 782 370 769 347L810 300C822 287 822 272 812 259C789 231 769 211 741 188C728 178 713 178 700 190L653 231C630 219 607 209 583 202L578 139C577 122 567 111 550 109C514 105 486 105 450 109C433 111 423 122 422 139L417 202C393 209 370 219 347 231L300 190C287 178 272 178 259 188C231 211 211 231 188 259C178 272 178 287 190 300L231 347C218 370 209 393 202 417L139 422C122 423 111 433 109 450C105 486 105 514 109 550C111 567 122 577 139 578L202 583C209 607 218 630 231 653ZM500 297C552 297 604 317 643 357C722 435 722 565 643 643C604 683 552 702 500 702C449 702 397 683 357 643C278 565 278 435 357 357C396 317 449 297 500 297Z"/></svg>
