<svg xmlns="http://www.w3.org/2000/svg" width="1000" height="1000" viewBox="0 0 1000 1000"><path transform="matrix(1 0 0 -1 0 800)" d="M270 215C270 196 282 185 300 185C317 185 328 196 328 215V562C328 584 340 601 362 601C384 601 395 584 395 562V344C395 325 407 314 424 314C441 314 453 325 453 344V643C453 665 464 682 486 682C508 682 519 665 519 643V344C519 325 531 314 548 314C565 314 577 325 577 344V562C577 584 588 601 610 601C632 601 643 584 643 562V344C643 325 655 314 672 314C689 314 701 325 701 344V482C701 504 712 521 734 521C756 521 768 504 768 482V181C768 19 644 -77 495 -77C357 -77 264 5 239 119L200 297C192 333 211 351 235 351C258 351 270 332 270 309H300C300 359 279 409 225 409C163 409 128 362 145 284L184 101C212 -30 326 -136 495 -136C675 -136 826 -17 826 181V482C826 531 804 579 744 579C692 579 672 531 672 482L702 562C702 611 680 659 620 659C568 659 548 611 548 562L578 643C578 692 553 740 486 740C419 740 394 692 394 643L424 562C424 611 404 659 352 659C292 659 270 611 270 562Z"/></svg>
