<svg xmlns="http://www.w3.org/2000/svg" width="1000" height="1000" viewBox="0 0 1000 1000"><path transform="matrix(1 0 0 -1 0 800)" d="M490 -137 85 41C76 45 69 54 69 65C69 76 75 85 85 89L209 144L85 198C76 202 69 211 69 222C69 233 75 242 85 246L209 300L85 355C76 359 69 368 69 379C69 389 75 399 85 403L209 458L85 511C76 515 69 524 69 535C69 545 75 555 85 559L490 737C496 740 504 740 510 737L915 559C924 555 931 546 931 535C931 525 925 515 915 511L791 456L915 401C924 397 931 388 931 377C931 367 925 357 915 353L791 300L915 245C924 241 931 232 931 221C931 210 925 201 915 197L791 142L915 87C924 83 931 74 931 63C931 52 925 43 915 39L510 -137C504 -140 496 -140 490 -137ZM160 65 500 -85 840 65 726 115 510 20C503 17 496 17 489 20L273 115ZM284 167 500 72 716 167C716 167 717 167 717 168L840 222L726 272L510 176C503 173 496 173 489 176L273 271L159 221L282 167C283 167 284 167 284 167ZM284 324 500 229 716 324C716 324 717 324 717 325L840 378L726 428L510 333C503 330 496 330 489 333L273 428L159 378L282 324C283 324 284 324 284 324ZM284 480 500 385 716 480C716 480 717 480 717 481L840 535L500 685L160 535L284 481C283 481 284 481 284 480Z"/></svg>
