<svg xmlns="http://www.w3.org/2000/svg" viewBox="0 0 1000 1000"><path d="M490 937 85 759C76 755 69 746 69 735C69 724 75 715 85 711L209 656L85 602C76 598 69 589 69 578C69 567 75 558 85 554L209 500L85 445C76 441 69 432 69 421C69 411 75 401 85 397L209 342L85 289C76 285 69 276 69 265C69 255 75 245 85 241L490 63C496 60 504 60 510 63L915 241C924 245 931 254 931 265C931 275 925 285 915 289L791 344L915 399C924 403 931 412 931 423C931 433 925 443 915 447L791 500L915 555C924 559 931 568 931 579C931 590 925 599 915 603L791 658L915 713C924 717 931 726 931 737C931 748 925 757 915 761L510 937C504 940 496 940 490 937ZM160 735 500 885 840 735 726 685 510 780C503 783 496 783 489 780L273 685ZM284 633 500 728 716 633C716 633 717 633 717 632L840 578L726 528L510 624C503 627 496 627 489 624L273 529L159 579L282 633C283 633 284 633 284 633ZM284 476 500 571 716 476C716 476 717 476 717 475L840 422L726 372L510 467C503 470 496 470 489 467L273 372L159 422L282 476C283 476 284 476 284 476ZM284 320 500 415 716 320C716 320 717 320 717 319L840 265L500 115L160 265L284 319C283 319 284 319 284 320Z"/></svg>
