<svg xmlns="http://www.w3.org/2000/svg" width="1000" height="1000" viewBox="0 0 1000 1000"><path transform="matrix(1 0 0 -1 0 800)" d="M380 640C501 640 600 541 600 420C600 299 501 200 380 200C259 200 160 299 160 420C160 541 259 640 380 640ZM840 -91C866 -91 890 -65 890 -39C890 -26 885 -13 875 -3L681 191C669 203 652 208 637 205L598 244C637 292 660 354 660 420C660 574 534 700 380 700C226 700 100 574 100 420C100 266 226 140 380 140C446 140 508 163 556 202L595 163C592 148 597 131 609 119L804 -76C814 -86 827 -91 840 -91Z"/></svg>
