<svg xmlns="http://www.w3.org/2000/svg" viewBox="0 0 1000 1000"><path d="M59 543C59 523 75 507 95 507H279C299 507 315 523 315 543V723C315 743 299 759 279 759H95C75 759 59 743 59 723ZM131 687H243V579H131ZM697 543C697 523 712 507 733 507H916C937 507 952 523 952 543V723C952 743 937 759 916 759H733C712 759 697 743 697 723ZM769 687H880V579H769ZM604 231C747 266 868 382 868 579H789C789 435 706 346 604 313ZM430 308C321 337 230 428 230 579H151C151 375 280 259 430 227ZM245 261C245 307 209 343 164 343C118 343 82 307 82 261C82 215 118 179 164 179C209 179 245 215 245 261ZM568 239H838V283H568ZM956 261C956 307 920 343 874 343C829 343 793 307 793 261C793 215 829 179 874 179C920 179 956 215 956 261ZM385 171C385 151 400 135 421 135H604C625 135 640 151 640 171V351C640 371 625 387 604 387H421C400 387 385 371 385 351ZM457 315H568V207H457ZM448 239V283H178V239Z"/></svg>
