<svg xmlns="http://www.w3.org/2000/svg" viewBox="0 0 1000 1000"><path d="M400 234C400 287 357 328 307 328C254 328 212 287 212 234C212 181 256 138 309 138C360 138 400 181 400 234ZM656 384C634 384 620 365 620 346V158C620 137 634 120 656 120H841C862 120 881 137 881 158V346C881 365 862 384 841 384ZM811 316V190H689V316ZM235 852C215 852 200 833 200 813V625C200 605 215 587 235 587H421C441 587 461 605 461 625V813C461 833 441 852 421 852ZM390 782V658H269V782ZM296 266 299 198H673V266ZM627 301C483 333 363 443 363 602L288 606C288 402 449 258 630 234Z"/></svg>
