<svg xmlns="http://www.w3.org/2000/svg" viewBox="0 0 1000 1000"><path d="M60 543C60 523 75 507 96 507H279C300 507 315 523 315 543V723C315 744 300 759 279 759H96C75 759 60 744 60 723ZM132 687H243V579H132ZM697 543C697 523 712 507 733 507H916C937 507 952 523 952 543V723C952 744 937 759 916 759H733C712 759 697 744 697 723ZM769 687H880V579H769ZM789 579C789 205 230 204 230 579H151C151 100 868 100 868 579ZM254 213C254 259 218 295 172 295C127 295 91 259 91 213C91 168 127 132 172 132C218 132 254 168 254 213ZM151 261H194V579H151ZM928 213C928 259 892 295 847 295C801 295 765 259 765 213C765 168 801 132 847 132C892 132 928 168 928 213ZM825 261H868V579H825ZM183 235V192H849V235Z"/></svg>
