<svg xmlns="http://www.w3.org/2000/svg" viewBox="0 0 1000 1000"><path d="M796 203C771 203 751 182 751 158C751 133 771 113 796 113C821 113 841 134 841 159C841 183 821 203 796 203ZM337 749 452 635 531 827C543 857 580 871 610 859C639 847 655 812 642 781L563 589H724C736 589 747 581 752 570C757 559 754 546 745 537L337 129C329 120 316 118 305 123C293 127 286 138 286 150V728C286 740 292 750 305 755C316 759 328 758 337 749ZM717 319C717 308 727 300 738 300H837C848 300 857 308 857 319V417C857 428 848 438 837 438H738C727 438 717 428 717 417ZM762 393H812V345H762ZM495 119C495 108 505 100 516 100H615C626 100 635 108 635 119V217C635 228 626 238 615 238H516C505 238 495 228 495 217ZM540 193H590V145H540ZM754 333C740 255 691 201 593 210V163C717 158 785 231 802 333ZM596 174 597 142H780L781 174ZM781 153 813 154V337L781 338Z"/></svg>
