<svg xmlns="http://www.w3.org/2000/svg" viewBox="0 0 1000 1000"><path d="M757 195C736 195 720 178 720 158C720 137 736 121 757 121C778 121 794 138 794 159C794 179 778 195 757 195ZM774 285H742V149H774ZM337 749 452 635 531 827C543 857 580 871 610 859C639 847 655 812 642 781L563 589H724C736 589 747 581 752 570C757 559 754 546 745 537L337 129C329 120 316 118 305 123C293 127 286 138 286 150V728C286 740 292 750 305 755C316 759 328 758 337 749ZM596 174 597 142H731L732 174ZM686 271C686 261 695 253 705 253H795C805 253 814 261 814 271V360C814 370 805 379 795 379H705C695 379 686 370 686 360ZM725 340H775V292H725ZM503 121C503 111 512 103 522 103H612C622 103 631 111 631 121V210C631 220 622 229 612 229H522C512 229 503 220 503 210ZM542 190H592V142H542ZM725 291C710 237 669 190 592 190V151C691 155 747 217 765 291Z"/></svg>
