<svg xmlns="http://www.w3.org/2000/svg" width="1000" height="1000" viewBox="0 0 1000 1000"><path transform="matrix(1 0 0 -1 0 800)" d="M736 370C753 370 766 383 766 400V512H878C895 512 908 525 908 542C908 559 895 572 878 572H766V684C766 701 753 714 736 714C719 714 706 701 706 684V572H594C577 572 564 559 564 542C564 525 577 512 594 512H706V400C706 383 719 370 736 370ZM295 51 410 165 489 -27C501 -57 538 -71 568 -59C597 -47 613 -12 600 19L521 211H682C694 211 705 219 710 230C715 241 712 254 703 263L295 671C287 680 274 682 263 677C251 673 244 662 244 650V72C244 60 250 50 263 45C274 41 286 42 295 51Z"/></svg>
