<svg xmlns="http://www.w3.org/2000/svg" viewBox="0 0 1000 1000"><path d="M848 423C861 437 882 438 894 426C906 414 906 396 894 384L802 282C791 269 772 267 759 278C747 289 747 310 759 322ZM295 749 410 635 489 827C501 857 538 871 568 859C597 847 613 812 600 781L521 589H682C694 589 705 581 710 570C715 559 712 546 703 537L295 129C287 120 274 118 263 123C251 127 244 138 244 150V728C244 740 250 750 263 755C274 759 286 758 295 749ZM897 264C897 177 846 104 759 104C672 104 621 177 621 264C621 353 672 425 759 425C846 425 897 353 897 264ZM844 264C844 322 815 374 759 374C703 374 675 322 675 264C675 207 703 155 759 155C815 155 844 207 844 264Z"/></svg>
