<svg xmlns="http://www.w3.org/2000/svg" viewBox="0 0 1000 1000"><path d="M337 749 452 635 531 827C543 857 580 871 610 859C639 847 655 812 642 781L563 589H724C736 589 747 581 752 570C757 559 754 546 745 537L337 129C329 120 316 118 305 123C293 127 286 138 286 150V728C286 740 292 750 305 755C316 759 328 758 337 749ZM527 144V120H695V144ZM723 353C723 345 731 339 739 339H812C820 339 828 345 828 353V426C828 434 820 441 812 441H739C731 441 723 434 723 426ZM449 104C449 96 457 90 465 90H538C546 90 554 96 554 104V177C554 185 546 192 538 192H465C457 192 449 185 449 177ZM800 420H776V252H800ZM827 226C827 248 810 266 788 266C766 266 748 248 748 226C748 205 766 187 788 187C810 187 827 205 827 226ZM746 132C746 154 729 172 707 172C685 172 667 154 667 132C667 111 685 93 707 93C729 93 746 111 746 132ZM786 410H759C759 278 662 160 530 160V134C676 134 786 264 786 410Z"/></svg>
