<svg xmlns="http://www.w3.org/2000/svg" viewBox="0 0 1000 1000"><path d="M736 430C753 430 766 417 766 400V288H878C895 288 908 275 908 258C908 241 895 228 878 228H766V116C766 99 753 86 736 86C719 86 706 99 706 116V228H594C577 228 564 241 564 258C564 275 577 288 594 288H706V400C706 417 719 430 736 430ZM295 749 410 635 489 827C501 857 538 871 568 859C597 847 613 812 600 781L521 589H682C694 589 705 581 710 570C715 559 712 546 703 537L295 129C287 120 274 118 263 123C251 127 244 138 244 150V728C244 740 250 750 263 755C274 759 286 758 295 749Z"/></svg>
