<svg xmlns="http://www.w3.org/2000/svg" width="1000" height="1000" viewBox="0 0 1000 1000"><path transform="matrix(1 0 0 -1 0 800)" d="M560 696H362C345 696 332 683 332 666V6C332 -11 345 -24 362 -24H383C400 -24 412 -11 412 6V253H570L706 -6C712 -17 721 -24 733 -24H754C770 -24 786 -15 786 2C786 18 783 23 779 31L648 267C746 295 795 375 795 493C795 639 698 696 560 696ZM489 -55H469C469 -66 460 -75 449 -75H159C148 -75 139 -66 139 -55C139 -44 148 -35 159 -35H264C270 -35 274 -31 274 -25V575C274 581 270 585 264 585H159C148 585 139 594 139 605C139 616 148 625 159 625H292V645H159C137 645 119 627 119 605C119 583 137 565 159 565H254V-15H159C137 -15 119 -33 119 -55C119 -77 137 -95 159 -95H449C471 -95 489 -77 489 -55ZM412 313V636H554C664 636 711 594 711 484C711 370 659 313 562 313ZM647 -62 511 197C509 200 506 202 502 202H452V182H496L629 -72C637 -87 650 -95 665 -95H824C846 -95 864 -77 864 -55H844C844 -66 835 -75 824 -75H665C662 -75 654 -75 647 -62ZM699 -30C700 -32 702 -34 705 -35C702 -33 700 -31 698 -28ZM653 423C653 482 640 521 613 547C586 573 545 585 486 585H452V565H486C540 565 576 555 599 533C622 511 633 476 633 423C633 413 633 403 632 394L653 411C653 415 653 419 653 423Z"/></svg>
