<svg xmlns="http://www.w3.org/2000/svg" viewBox="0 0 1000 1000"><path d="M560 104H362C345 104 332 117 332 134V794C332 811 345 824 362 824H383C400 824 412 811 412 794V547H570L706 806C712 817 721 824 733 824H754C770 824 786 815 786 798C786 782 783 777 779 769L648 533C746 505 795 425 795 307C795 161 698 104 560 104ZM489 855H469C469 866 460 875 449 875H159C148 875 139 866 139 855C139 844 148 835 159 835H264C270 835 274 831 274 825V225C274 219 270 215 264 215H159C148 215 139 206 139 195C139 184 148 175 159 175H292V155H159C137 155 119 173 119 195C119 217 137 235 159 235H254V815H159C137 815 119 833 119 855C119 877 137 895 159 895H449C471 895 489 877 489 855ZM412 487V164H554C664 164 711 206 711 316C711 430 659 487 562 487ZM647 862 511 603C509 600 506 598 502 598H452V618H496L629 872C637 887 650 895 665 895H824C846 895 864 877 864 855H844C844 866 835 875 824 875H665C662 875 654 875 647 862ZM699 830C700 832 702 834 705 835C702 833 700 831 698 828ZM653 377C653 318 640 279 613 253C586 227 545 215 486 215H452V235H486C540 235 576 245 599 267C622 289 633 324 633 377C633 387 633 397 632 406L653 389C653 385 653 381 653 377Z"/></svg>
