<svg xmlns="http://www.w3.org/2000/svg" width="876" height="780"
  viewBox="62 0 876 780">
  <path transform="matrix(1 0 0 -1 0 860)" d="M885,792C907,792 926,799 932,821C938,843 925,860 903,860L303,860C281,860 260,843 254,821C248,799 263,792 285,792L885,792ZM322,821C328,843 325,860 303,860C281,860 260,843 254,821L68,119C62,97 75,80 97,80C119,80 130,97 136,119L322,821ZM932,821C938,843 925,860 903,860C881,860 870,843 864,821L678,119C672,97 675,80 697,80C719,80 740,97 746,119L932,821ZM697,80C719,80 740,97 746,119C752,141 737,148 715,148L115,148C93,148 74,141 68,119C62,97 75,80 97,80L697,80ZM62,301L62,264C62,246 77,231 95,231C114,231 129,246 129,264L129,301C129,320 114,334 95,334C77,334 62,320 62,301ZM62,666L62,629C62,611 77,596 95,596C114,596 129,611 129,629L129,666C129,685 114,699 95,699C77,699 62,685 62,666ZM95,793L152,793C170,793 185,808 185,826C185,845 170,860 152,860L95,860C76,860 62,845 62,826C62,808 76,793 95,793ZM62,481L62,444C62,426 77,411 95,411C114,411 129,426 129,444L129,481C129,500 114,514 95,514C77,514 62,500 62,481ZM671,301L671,264C671,246 686,231 704,231C723,231 738,246 738,264L738,301C738,320 723,334 704,334C686,334 671,320 671,301ZM671,666L671,629C671,611 686,596 704,596C723,596 738,611 738,629L738,666C738,685 723,699 704,699C686,699 671,685 671,666ZM671,481L671,444C671,426 686,411 704,411C723,411 738,426 738,444L738,481C738,500 723,514 704,514C686,514 671,500 671,481ZM62,827L62,790C62,772 77,757 95,757C114,757 129,772 129,790L129,827C129,846 114,860 95,860C77,860 62,846 62,827ZM668,827L668,790C668,772 683,757 701,757C720,757 735,772 735,790L735,827C735,846 720,860 701,860C683,860 668,846 668,827Z"/>
</svg>
