<svg xmlns="http://www.w3.org/2000/svg" viewBox="0 0 1000 1000"><path d="M121 657V692C121 709 136 723 153 723C171 723 185 709 185 692V657C185 640 171 627 153 627C136 627 121 640 121 657ZM121 318V353C121 368 136 382 153 382C171 382 185 368 185 353V318C185 300 171 286 153 286C136 286 121 300 121 318ZM153 199H205C222 199 236 185 236 169C236 151 222 137 205 137H153C135 137 121 151 121 169C121 185 135 199 153 199ZM121 490V525C121 542 136 554 153 554C171 554 185 542 185 525V490C185 471 171 458 153 458C136 458 121 471 121 490ZM689 657V692C689 709 703 723 720 723C738 723 752 709 752 692V657C752 640 738 627 720 627C703 627 689 640 689 657ZM689 318V353C689 368 703 382 720 382C738 382 752 368 752 353V318C752 300 738 286 720 286C703 286 689 300 689 318ZM689 490V525C689 542 703 554 720 554C738 554 752 542 752 525V490C752 471 738 458 720 458C703 458 689 471 689 490ZM121 168V202C121 219 136 233 153 233C171 233 185 219 185 202V168C185 150 171 137 153 137C136 137 121 150 121 168ZM686 168V202C686 219 700 233 717 233C735 233 749 219 749 202V168ZM936 173C942 154 930 137 910 137H349C331 137 311 153 306 173L131 814C123 842 139 863 167 863H717C739 863 760 842 766 814ZM199 801 364 199H864L705 801Z"/></svg>
