<svg xmlns="http://www.w3.org/2000/svg" viewBox="0 0 1000 1000"><path d="M121 665V700C121 717 136 731 153 731C171 731 185 717 185 700V665C185 648 171 635 153 635C136 635 121 648 121 665ZM121 326V361C121 376 136 390 153 390C171 390 185 376 185 361V326C185 308 171 294 153 294C136 294 121 308 121 326ZM153 207H205C222 207 236 193 236 177C236 159 222 145 205 145H153C135 145 121 159 121 177C121 193 135 207 153 207ZM121 498V533C121 550 136 562 153 562C171 562 185 550 185 533V498C185 479 171 466 153 466C136 466 121 479 121 498ZM689 665V700C689 717 703 731 720 731C738 731 752 717 752 700V665C752 648 738 635 720 635C703 635 689 648 689 665ZM689 326V361C689 376 703 390 720 390C738 390 752 376 752 361V326C752 308 738 294 720 294C703 294 689 308 689 326ZM689 498V533C689 550 703 562 720 562C738 562 752 550 752 533V498C752 479 738 466 720 466C703 466 689 479 689 498ZM121 176V210C121 227 136 241 153 241C171 241 185 227 185 210V176C185 158 171 145 153 145C136 145 121 158 121 176ZM686 176V210C686 227 700 241 717 241C735 241 749 227 749 210V176ZM936 181C942 162 930 145 910 145H349C331 145 311 161 306 181L131 822C123 850 139 871 167 871H717C739 871 760 850 766 822ZM199 809 364 207H864L705 809Z"/></svg>
