<svg xmlns="http://www.w3.org/2000/svg" viewBox="0 0 938 1000"><path d="M91 665V700C91 717 106 731 123 731C141 731 155 717 155 700V665C155 648 141 635 123 635C106 635 91 648 91 665ZM91 326V361C91 376 106 390 123 390C141 390 155 376 155 361V326C155 308 141 294 123 294C106 294 91 308 91 326ZM123 207H175C192 207 206 193 206 177C206 159 192 145 175 145H123C105 145 91 159 91 177C91 193 105 207 123 207ZM91 498V533C91 550 106 562 123 562C141 562 155 550 155 533V498C155 479 141 466 123 466C106 466 91 479 91 498ZM659 665V700C659 717 673 731 690 731C708 731 722 717 722 700V665C722 648 708 635 690 635C673 635 659 648 659 665ZM659 326V361C659 376 673 390 690 390C708 390 722 376 722 361V326C722 308 708 294 690 294C673 294 659 308 659 326ZM659 498V533C659 550 673 562 690 562C708 562 722 550 722 533V498C722 479 708 466 690 466C673 466 659 479 659 498ZM91 176V210C91 227 106 241 123 241C141 241 155 227 155 210V176C155 158 141 145 123 145C106 145 91 158 91 176ZM656 176V210C656 227 670 241 687 241C705 241 719 227 719 210V176ZM906 181C912 162 900 145 880 145H319C301 145 281 161 276 181L101 822C93 850 109 871 137 871H687C709 871 730 850 736 822ZM169 809 334 207H834L675 809Z"/></svg>
