<svg xmlns="http://www.w3.org/2000/svg" width="1000" height="1000" viewBox="0 0 1000 1000"><path transform="matrix(1 0 0 -1 0 800)" d="M485 520C517 520 550 541 559 570H860C877 570 890 583 890 600C890 617 877 630 860 630H560C548 659 517 680 485 680C451 680 420 659 411 630H140C123 630 110 617 110 600C110 583 123 570 140 570H410C422 541 453 520 485 520ZM597 320C631 320 662 341 671 370H860C877 370 890 383 890 400C890 417 877 430 860 430H672C660 459 630 480 597 480C563 480 532 459 523 430H140C123 430 110 417 110 400C110 383 123 370 140 370H522C534 341 565 320 597 320ZM637 120C668 120 700 141 711 170H860C877 170 890 183 890 200C890 217 877 230 860 230H710C698 259 667 279 637 279C606 279 575 260 563 230H140C123 230 110 217 110 200C110 183 123 170 140 170H562C574 141 607 120 637 120ZM259 -80C290 -80 322 -59 333 -30H860C877 -30 890 -17 890 0C890 17 877 30 860 30H332C320 59 289 79 259 79C228 79 197 60 185 30H140C123 30 110 17 110 0C110 -17 123 -30 140 -30H184C196 -59 229 -80 259 -80Z"/></svg>
