<svg xmlns="http://www.w3.org/2000/svg" viewBox="0 0 1000 1000"><path d="M485 280C517 280 550 259 559 230H860C877 230 890 217 890 200C890 183 877 170 860 170H560C548 141 517 120 485 120C451 120 420 141 411 170H140C123 170 110 183 110 200C110 217 123 230 140 230H410C422 259 453 280 485 280ZM597 480C631 480 662 459 671 430H860C877 430 890 417 890 400C890 383 877 370 860 370H672C660 341 630 320 597 320C563 320 532 341 523 370H140C123 370 110 383 110 400C110 417 123 430 140 430H522C534 459 565 480 597 480ZM637 680C668 680 700 659 711 630H860C877 630 890 617 890 600C890 583 877 570 860 570H710C698 541 667 521 637 521C606 521 575 540 563 570H140C123 570 110 583 110 600C110 617 123 630 140 630H562C574 659 607 680 637 680ZM259 880C290 880 322 859 333 830H860C877 830 890 817 890 800C890 783 877 770 860 770H332C320 741 289 721 259 721C228 721 197 740 185 770H140C123 770 110 783 110 800C110 817 123 830 140 830H184C196 859 229 880 259 880Z"/></svg>
