<svg  id="iconOrigin" xmlns="http://www.w3.org/2000/svg"  width="24"  height="24"  viewBox="0 0 24 24"  fill="none"  stroke="currentColor"  stroke-width="2"  stroke-linecap="round"  stroke-linejoin="round"  class="icon icon-tabler icons-tabler-outline icon-tabler-grid-dots">
	<path stroke="none" d="M0 0h24v24H0z" fill="none"></path>
		<path id="icon-origin-top-left" class="icon-origin-node" onclick="changeOrigin(this)" d="M5 5m-1 0a1 1 0 1 0 2 0a1 1 0 1 0 -2 0"></path>
		<path id="icon-origin-top-center" class="icon-origin-node" onclick="changeOrigin(this)" d="M12 5m-1 0a1 1 0 1 0 2 0a1 1 0 1 0 -2 0" />
		<path id="icon-origin-top-right" class="icon-origin-node" onclick="changeOrigin(this)" d="M19 5m-1 0a1 1 0 1 0 2 0a1 1 0 1 0 -2 0" />
		<path id="icon-origin-middle-left" class="icon-origin-node" onclick="changeOrigin(this)" d="M5 12m-1 0a1 1 0 1 0 2 0a1 1 0 1 0 -2 0" />
		<path id="icon-origin-middle-center" style="color: red;" class="icon-origin-node" onclick="changeOrigin(this)" d="M12 12m-1 0a1 1 0 1 0 2 0a1 1 0 1 0 -2 0" />
		<path id="icon-origin-middle-right" class="icon-origin-node" onclick="changeOrigin(this)" d="M19 12m-1 0a1 1 0 1 0 2 0a1 1 0 1 0 -2 0" />
		<path id="icon-origin-bottom-left" class="icon-origin-node" onclick="changeOrigin(this)" d="M5 19m-1 0a1 1 0 1 0 2 0a1 1 0 1 0 -2 0" />
		<path id="icon-origin-bottom-center" class="icon-origin-node" onclick="changeOrigin(this)" d="M12 19m-1 0a1 1 0 1 0 2 0a1 1 0 1 0 -2 0" />
		<path id="icon-origin-bottom-right" class="icon-origin-node" onclick="changeOrigin(this)" d="M19 19m-1 0a1 1 0 1 0 2 0a1 1 0 1 0 -2 0" />

</svg>
