<svg  xmlns="http://www.w3.org/2000/svg"  width="24"  height="24"  viewBox="0 0 24 24"  fill="none"  stroke="currentColor"  stroke-width="2"  stroke-linecap="round"  stroke-linejoin="round"  class="icon icon-tabler icons-tabler-outline icon-tabler-vertical-align-center">
	<path stroke="none" d="M0 0h24v24H0z" fill="none"/>
	<path d="M10 2l0 20" />
	<path d="M6 4m0 2a2 2 0 0 1 2 -2h4a2 2 0 0 1 2 2v2a2 2 0 0 1 -2 2h-4a2 2 0 0 1 -2 -2z" />
	<path d="M4 14m0 2a2 2 0 0 1 2 -2h8a2 2 0 0 1 2 2v2a2 2 0 0 1 -2 2h-8a2 2 0 0 1 -2 -2z" />
</svg>
